<svg xmlns="http://www.w3.org/2000/svg" xmlns:xlink="http://www.w3.org/1999/xlink" width="500" zoomAndPan="magnify" viewBox="0 0 375 157.92" height="200" preserveAspectRatio="xMidYMid meet" version="1.0"><defs><g/><clipPath id="7ac65221a0"><path d="M 156.546875 26.0625 L 157.316406 26.0625 L 157.316406 26.714844 L 156.546875 26.714844 Z M 156.546875 26.0625 " clip-rule="nonzero"/></clipPath><clipPath id="f7d8d488f7"><path d="M 157.3125 26.296875 C 156.960938 26.84375 156.648438 26.726562 156.570312 26.609375 C 156.53125 26.53125 156.570312 26.179688 156.6875 26.101562 C 156.765625 26.023438 157.195312 26.140625 157.195312 26.140625 " clip-rule="nonzero"/></clipPath><clipPath id="105ed8d047"><path d="M 177 18.945312 L 201.632812 18.945312 L 201.632812 61.675781 L 177 61.675781 Z M 177 18.945312 " clip-rule="nonzero"/></clipPath><clipPath id="8252030d73"><path d="M 158.152344 21 L 177 21 L 177 54 L 158.152344 54 Z M 158.152344 21 " clip-rule="nonzero"/></clipPath><clipPath id="990f72e7b5"><path d="M 162.5625 21.546875 C 162.152344 23.601562 163.179688 25.71875 164.652344 27.199219 C 166.125 28.675781 168.011719 29.660156 169.816406 30.71875 C 171.617188 31.777344 173.414062 32.976562 174.546875 34.738281 C 175.535156 36.269531 175.933594 38.101562 176.140625 39.914062 C 176.390625 42.105469 176.359375 44.410156 175.660156 46.476562 C 175.15625 45.234375 174.496094 44.039062 173.746094 42.925781 C 172.269531 40.734375 170.457031 38.800781 168.652344 36.878906 C 166.539062 34.632812 164.429688 32.386719 162.320312 30.140625 C 164.503906 34.25 167.890625 37.554688 170.753906 41.226562 C 173.617188 44.890625 176.054688 49.269531 175.789062 53.921875 C 175.574219 51.542969 173.652344 49.652344 171.566406 48.503906 C 169.480469 47.351562 167.136719 46.710938 165.078125 45.511719 C 161.1875 43.226562 158.570312 38.894531 158.363281 34.378906 C 158.160156 29.816406 160.238281 25.476562 162.5625 21.546875 Z M 162.5625 21.546875 " clip-rule="nonzero"/></clipPath><linearGradient x1="-1204.20996" gradientTransform="matrix(-0.0424865, 0, 0, 0.0426261, 116.154185, 18.945482)" y1="60.999981" x2="-1204.20996" gradientUnits="userSpaceOnUse" y2="820.500005" id="af39a9592c"><stop stop-opacity="1" stop-color="rgb(53.503418%, 74.87793%, 25.770569%)" offset="0"/><stop stop-opacity="1" stop-color="rgb(53.413391%, 74.772644%, 25.761414%)" offset="0.125"/><stop stop-opacity="1" stop-color="rgb(53.234863%, 74.565125%, 25.744629%)" offset="0.25"/><stop stop-opacity="1" stop-color="rgb(53.05481%, 74.356079%, 25.727844%)" offset="0.375"/><stop stop-opacity="1" stop-color="rgb(52.876282%, 74.147034%, 25.71106%)" offset="0.5"/><stop stop-opacity="1" stop-color="rgb(52.696228%, 73.939514%, 25.694275%)" offset="0.625"/><stop stop-opacity="1" stop-color="rgb(52.5177%, 73.730469%, 25.67749%)" offset="0.75"/><stop stop-opacity="1" stop-color="rgb(52.337646%, 73.522949%, 25.660706%)" offset="0.875"/><stop stop-opacity="1" stop-color="rgb(52.157593%, 73.313904%, 25.645447%)" offset="1"/></linearGradient></defs><g fill="#87bd42" fill-opacity="1"><g transform="translate(0.1052, 106.493981)"><g><path d="M 41.316406 0 L 28.121094 0 L 12.632812 -17.832031 L 12.632812 0 L 3.058594 0 L 3.058594 -42.027344 L 12.632812 -42.027344 L 12.632812 -24.859375 L 27.050781 -42.027344 L 38.667969 -42.027344 L 21.753906 -22.109375 Z M 41.316406 0 "/></g></g></g><g fill="#87bd42" fill-opacity="1"><g transform="translate(35.864721, 106.493981)"><g><path d="M 3.058594 -42.027344 L 18.085938 -42.027344 C 22.125 -42.027344 25.421875 -40.949219 27.96875 -38.792969 C 30.515625 -36.636719 31.789062 -33.554688 31.789062 -29.546875 C 31.789062 -26.457031 31.015625 -23.867188 29.472656 -21.777344 C 27.925781 -19.691406 25.828125 -18.222656 23.179688 -17.371094 L 37.648438 0 L 25.472656 0 L 12.632812 -16.609375 L 12.632812 0 L 3.058594 0 Z M 12.632812 -23.382812 L 13.753906 -23.382812 C 14.636719 -23.382812 15.386719 -23.398438 15.996094 -23.433594 C 16.609375 -23.46875 17.304688 -23.585938 18.085938 -23.789062 C 18.867188 -23.996094 19.496094 -24.285156 19.96875 -24.65625 C 20.445312 -25.03125 20.851562 -25.574219 21.191406 -26.289062 C 21.53125 -27 21.703125 -27.867188 21.703125 -28.886719 C 21.703125 -29.902344 21.53125 -30.769531 21.191406 -31.484375 C 20.851562 -32.195312 20.445312 -32.738281 19.96875 -33.113281 C 19.496094 -33.488281 18.867188 -33.777344 18.085938 -33.980469 C 17.304688 -34.183594 16.609375 -34.300781 15.996094 -34.335938 C 15.386719 -34.371094 14.636719 -34.386719 13.753906 -34.386719 L 12.632812 -34.386719 Z M 12.632812 -23.382812 "/></g></g></g><g fill="#87bd42" fill-opacity="1"><g transform="translate(68.007486, 106.493981)"><g><path d="M 35.355469 -42.027344 L 35.355469 -14.925781 C 35.355469 -9.765625 33.960938 -5.859375 31.179688 -3.210938 C 28.394531 -0.558594 24.316406 0.765625 18.953125 0.765625 C 13.585938 0.765625 9.507812 -0.558594 6.726562 -3.210938 C 3.941406 -5.859375 2.546875 -9.765625 2.546875 -14.925781 L 2.546875 -42.027344 L 12.125 -42.027344 L 12.125 -17.730469 C 12.125 -14.332031 12.660156 -11.972656 13.730469 -10.648438 C 14.800781 -9.324219 16.539062 -8.660156 18.953125 -8.660156 C 21.363281 -8.660156 23.101562 -9.324219 24.171875 -10.648438 C 25.242188 -11.972656 25.777344 -14.332031 25.777344 -17.730469 L 25.777344 -42.027344 Z M 35.355469 -42.027344 "/></g></g></g><g fill="#87bd42" fill-opacity="1"><g transform="translate(101.576577, 106.493981)"><g><path d="M 18.542969 -42.792969 C 20.820312 -42.792969 23.042969 -42.460938 25.21875 -41.800781 C 27.390625 -41.136719 29.003906 -40.484375 30.058594 -39.839844 L 31.585938 -38.820312 L 27.714844 -31.179688 C 27.40625 -31.382812 26.984375 -31.644531 26.441406 -31.96875 C 25.898438 -32.289062 24.878906 -32.722656 23.382812 -33.265625 C 21.890625 -33.808594 20.496094 -34.082031 19.207031 -34.082031 C 17.609375 -34.082031 16.378906 -33.742188 15.511719 -33.0625 C 14.644531 -32.382812 14.214844 -31.464844 14.214844 -30.3125 C 14.214844 -29.734375 14.417969 -29.199219 14.824219 -28.707031 C 15.230469 -28.214844 15.929688 -27.6875 16.914062 -27.128906 C 17.898438 -26.566406 18.765625 -26.117188 19.511719 -25.777344 C 20.257812 -25.4375 21.414062 -24.929688 22.976562 -24.25 C 25.691406 -23.09375 28.011719 -21.523438 29.929688 -19.535156 C 31.847656 -17.550781 32.808594 -15.300781 32.808594 -12.785156 C 32.808594 -10.375 32.375 -8.269531 31.507812 -6.46875 C 30.644531 -4.667969 29.453125 -3.261719 27.941406 -2.242188 C 26.429688 -1.222656 24.757812 -0.46875 22.925781 0.0273438 C 21.089844 0.519531 19.105469 0.765625 16.964844 0.765625 C 15.128906 0.765625 13.332031 0.578125 11.5625 0.203125 C 9.796875 -0.167969 8.320312 -0.636719 7.132812 -1.195312 C 5.945312 -1.757812 4.875 -2.308594 3.921875 -2.851562 C 2.972656 -3.394531 2.277344 -3.855469 1.835938 -4.226562 L 1.171875 -4.789062 L 5.960938 -12.839844 C 6.367188 -12.5 6.929688 -12.066406 7.640625 -11.539062 C 8.355469 -11.011719 9.621094 -10.308594 11.4375 -9.425781 C 13.253906 -8.542969 14.859375 -8.101562 16.25 -8.101562 C 20.292969 -8.101562 22.3125 -9.476562 22.3125 -12.226562 C 22.3125 -12.804688 22.167969 -13.339844 21.878906 -13.832031 C 21.589844 -14.324219 21.082031 -14.816406 20.351562 -15.308594 C 19.621094 -15.800781 18.976562 -16.191406 18.417969 -16.480469 C 17.855469 -16.769531 16.9375 -17.210938 15.664062 -17.804688 C 14.390625 -18.398438 13.449219 -18.847656 12.839844 -19.15625 C 10.289062 -20.410156 8.320312 -21.980469 6.929688 -23.867188 C 5.535156 -25.753906 4.839844 -27.78125 4.839844 -29.957031 C 4.839844 -33.726562 6.230469 -36.808594 9.015625 -39.203125 C 11.800781 -41.597656 14.976562 -42.792969 18.542969 -42.792969 Z M 18.542969 -42.792969 "/></g></g></g><g fill="#87bd42" fill-opacity="1"><g transform="translate(131.477976, 106.493981)"><g><path d="M 12.632812 -16.863281 L 12.632812 0 L 3.058594 0 L 3.058594 -42.027344 L 12.632812 -42.027344 L 12.632812 -25.269531 L 26.183594 -25.269531 L 26.183594 -42.027344 L 35.761719 -42.027344 L 35.761719 0 L 26.183594 0 L 26.183594 -16.863281 Z M 12.632812 -16.863281 "/></g></g></g><g fill="#87bd42" fill-opacity="1"><g transform="translate(165.968429, 106.493981)"><g/></g></g><g fill="#000000" fill-opacity="1"><g transform="translate(85.444761, 127.938544)"><g><path d="M 1.328125 0 L 1.328125 -9.121094 L 6.554688 -9.121094 L 6.554688 -8.050781 L 2.476562 -8.050781 L 2.476562 -4.898438 L 6.214844 -4.898438 L 6.214844 -3.84375 L 2.476562 -3.84375 L 2.476562 0 Z M 1.328125 0 "/></g></g></g><g fill="#000000" fill-opacity="1"><g transform="translate(99.802341, 127.938544)"><g><path d="M 0.222656 0 L 3.972656 -9.121094 L 5.042969 -9.121094 L 8.792969 0 L 7.582031 0 L 6.722656 -2.070312 L 2.28125 -2.070312 L 1.445312 0 Z M 2.722656 -3.140625 L 6.292969 -3.140625 L 4.507812 -7.515625 Z M 2.722656 -3.140625 "/></g></g></g><g fill="#000000" fill-opacity="1"><g transform="translate(115.905774, 127.938544)"><g><path d="M 1.328125 0 L 1.328125 -9.121094 L 4.808594 -9.121094 C 5.441406 -9.121094 5.992188 -9 6.460938 -8.761719 C 6.929688 -8.523438 7.296875 -8.1875 7.554688 -7.753906 C 7.816406 -7.316406 7.949219 -6.796875 7.949219 -6.1875 C 7.949219 -5.449219 7.757812 -4.839844 7.375 -4.359375 C 6.992188 -3.875 6.464844 -3.550781 5.796875 -3.386719 L 8.089844 0 L 6.710938 0 L 4.480469 -3.269531 L 2.476562 -3.269531 L 2.476562 0 Z M 2.476562 -4.363281 L 4.675781 -4.363281 C 5.347656 -4.363281 5.863281 -4.523438 6.226562 -4.839844 C 6.59375 -5.15625 6.773438 -5.605469 6.773438 -6.1875 C 6.773438 -6.769531 6.59375 -7.222656 6.226562 -7.542969 C 5.863281 -7.863281 5.347656 -8.027344 4.675781 -8.027344 L 2.476562 -8.027344 Z M 2.476562 -4.363281 "/></g></g></g><g fill="#000000" fill-opacity="1"><g transform="translate(131.865888, 127.938544)"><g><path d="M 1.328125 0 L 1.328125 -9.121094 L 2.398438 -9.121094 L 5.980469 -3.714844 L 9.535156 -9.121094 L 10.605469 -9.121094 L 10.605469 0 L 9.457031 0 L 9.457031 -6.96875 L 6.4375 -2.421875 L 5.5 -2.421875 L 2.476562 -6.984375 L 2.476562 0 Z M 1.328125 0 "/></g></g></g><g fill="#000000" fill-opacity="1"><g transform="translate(150.887751, 127.938544)"><g/></g></g><g fill="#000000" fill-opacity="1"><g transform="translate(161.206443, 127.938544)"><g><path d="M 1.328125 0 L 1.328125 -9.121094 L 6.554688 -9.121094 L 6.554688 -8.050781 L 2.476562 -8.050781 L 2.476562 -4.898438 L 6.214844 -4.898438 L 6.214844 -3.84375 L 2.476562 -3.84375 L 2.476562 0 Z M 1.328125 0 "/></g></g></g><g fill="#000000" fill-opacity="1"><g transform="translate(175.564024, 127.938544)"><g><path d="M 1.328125 0 L 1.328125 -9.121094 L 4.808594 -9.121094 C 5.441406 -9.121094 5.992188 -9 6.460938 -8.761719 C 6.929688 -8.523438 7.296875 -8.1875 7.554688 -7.753906 C 7.816406 -7.316406 7.949219 -6.796875 7.949219 -6.1875 C 7.949219 -5.449219 7.757812 -4.839844 7.375 -4.359375 C 6.992188 -3.875 6.464844 -3.550781 5.796875 -3.386719 L 8.089844 0 L 6.710938 0 L 4.480469 -3.269531 L 2.476562 -3.269531 L 2.476562 0 Z M 2.476562 -4.363281 L 4.675781 -4.363281 C 5.347656 -4.363281 5.863281 -4.523438 6.226562 -4.839844 C 6.59375 -5.15625 6.773438 -5.605469 6.773438 -6.1875 C 6.773438 -6.769531 6.59375 -7.222656 6.226562 -7.542969 C 5.863281 -7.863281 5.347656 -8.027344 4.675781 -8.027344 L 2.476562 -8.027344 Z M 2.476562 -4.363281 "/></g></g></g><g fill="#000000" fill-opacity="1"><g transform="translate(191.524138, 127.938544)"><g><path d="M 1.328125 0 L 1.328125 -9.121094 L 6.867188 -9.121094 L 6.867188 -8.050781 L 2.476562 -8.050781 L 2.476562 -5.171875 L 6.539062 -5.171875 L 6.539062 -4.117188 L 2.476562 -4.117188 L 2.476562 -1.066406 L 7.007812 -1.066406 L 7.007812 0 Z M 1.328125 0 "/></g></g></g><g fill="#000000" fill-opacity="1"><g transform="translate(206.468015, 127.938544)"><g><path d="M 4.363281 0.167969 C 3.636719 0.167969 3.003906 0.046875 2.46875 -0.203125 C 1.933594 -0.449219 1.523438 -0.796875 1.230469 -1.246094 C 0.941406 -1.691406 0.789062 -2.210938 0.78125 -2.800781 L 1.929688 -2.800781 C 1.945312 -2.21875 2.179688 -1.761719 2.625 -1.425781 C 3.074219 -1.09375 3.652344 -0.925781 4.363281 -0.925781 C 5.007812 -0.925781 5.519531 -1.050781 5.894531 -1.304688 C 6.273438 -1.554688 6.460938 -1.90625 6.460938 -2.359375 C 6.460938 -2.785156 6.28125 -3.125 5.914062 -3.382812 C 5.550781 -3.636719 4.957031 -3.859375 4.128906 -4.050781 C 3.007812 -4.320312 2.1875 -4.667969 1.667969 -5.085938 C 1.148438 -5.507812 0.886719 -6.070312 0.886719 -6.773438 C 0.886719 -7.546875 1.179688 -8.160156 1.765625 -8.613281 C 2.351562 -9.0625 3.144531 -9.289062 4.144531 -9.289062 C 5.167969 -9.289062 5.976562 -9.03125 6.574219 -8.519531 C 7.167969 -8.007812 7.46875 -7.308594 7.476562 -6.421875 L 6.34375 -6.421875 C 6.335938 -6.96875 6.132812 -7.402344 5.738281 -7.71875 C 5.34375 -8.035156 4.8125 -8.195312 4.144531 -8.195312 C 3.492188 -8.195312 2.980469 -8.066406 2.613281 -7.8125 C 2.242188 -7.554688 2.058594 -7.210938 2.058594 -6.773438 C 2.058594 -6.402344 2.230469 -6.085938 2.574219 -5.832031 C 2.917969 -5.574219 3.53125 -5.335938 4.417969 -5.121094 C 5.582031 -4.832031 6.410156 -4.476562 6.90625 -4.046875 C 7.398438 -3.617188 7.648438 -3.066406 7.648438 -2.398438 C 7.648438 -1.605469 7.351562 -0.980469 6.753906 -0.519531 C 6.160156 -0.0625 5.363281 0.167969 4.363281 0.167969 Z M 4.363281 0.167969 "/></g></g></g><g fill="#000000" fill-opacity="1"><g transform="translate(221.985151, 127.938544)"><g><path d="M 7.308594 0 L 7.308594 -4.105469 L 2.476562 -4.105469 L 2.476562 0 L 1.328125 0 L 1.328125 -9.121094 L 2.476562 -9.121094 L 2.476562 -5.199219 L 7.308594 -5.199219 L 7.308594 -9.121094 L 8.457031 -9.121094 L 8.457031 0 Z M 7.308594 0 "/></g></g></g><g fill="#000000" fill-opacity="1"><g transform="translate(238.85728, 127.938544)"><g><path d="M 1.328125 0 L 1.328125 -9.121094 L 2.410156 -9.121094 L 7.453125 -1.980469 L 7.453125 -9.121094 L 8.574219 -9.121094 L 8.574219 0 L 7.503906 0 L 2.460938 -7.140625 L 2.460938 0 Z M 1.328125 0 "/></g></g></g><g fill="#000000" fill-opacity="1"><g transform="translate(255.846669, 127.938544)"><g><path d="M 1.328125 0 L 1.328125 -9.121094 L 6.867188 -9.121094 L 6.867188 -8.050781 L 2.476562 -8.050781 L 2.476562 -5.171875 L 6.539062 -5.171875 L 6.539062 -4.117188 L 2.476562 -4.117188 L 2.476562 -1.066406 L 7.007812 -1.066406 L 7.007812 0 Z M 1.328125 0 "/></g></g></g><g fill="#000000" fill-opacity="1"><g transform="translate(270.790547, 127.938544)"><g><path d="M 4.363281 0.167969 C 3.636719 0.167969 3.003906 0.046875 2.46875 -0.203125 C 1.933594 -0.449219 1.523438 -0.796875 1.230469 -1.246094 C 0.941406 -1.691406 0.789062 -2.210938 0.78125 -2.800781 L 1.929688 -2.800781 C 1.945312 -2.21875 2.179688 -1.761719 2.625 -1.425781 C 3.074219 -1.09375 3.652344 -0.925781 4.363281 -0.925781 C 5.007812 -0.925781 5.519531 -1.050781 5.894531 -1.304688 C 6.273438 -1.554688 6.460938 -1.90625 6.460938 -2.359375 C 6.460938 -2.785156 6.28125 -3.125 5.914062 -3.382812 C 5.550781 -3.636719 4.957031 -3.859375 4.128906 -4.050781 C 3.007812 -4.320312 2.1875 -4.667969 1.667969 -5.085938 C 1.148438 -5.507812 0.886719 -6.070312 0.886719 -6.773438 C 0.886719 -7.546875 1.179688 -8.160156 1.765625 -8.613281 C 2.351562 -9.0625 3.144531 -9.289062 4.144531 -9.289062 C 5.167969 -9.289062 5.976562 -9.03125 6.574219 -8.519531 C 7.167969 -8.007812 7.46875 -7.308594 7.476562 -6.421875 L 6.34375 -6.421875 C 6.335938 -6.96875 6.132812 -7.402344 5.738281 -7.71875 C 5.34375 -8.035156 4.8125 -8.195312 4.144531 -8.195312 C 3.492188 -8.195312 2.980469 -8.066406 2.613281 -7.8125 C 2.242188 -7.554688 2.058594 -7.210938 2.058594 -6.773438 C 2.058594 -6.402344 2.230469 -6.085938 2.574219 -5.832031 C 2.917969 -5.574219 3.53125 -5.335938 4.417969 -5.121094 C 5.582031 -4.832031 6.410156 -4.476562 6.90625 -4.046875 C 7.398438 -3.617188 7.648438 -3.066406 7.648438 -2.398438 C 7.648438 -1.605469 7.351562 -0.980469 6.753906 -0.519531 C 6.160156 -0.0625 5.363281 0.167969 4.363281 0.167969 Z M 4.363281 0.167969 "/></g></g></g><g fill="#000000" fill-opacity="1"><g transform="translate(286.307683, 127.938544)"><g><path d="M 4.363281 0.167969 C 3.636719 0.167969 3.003906 0.046875 2.46875 -0.203125 C 1.933594 -0.449219 1.523438 -0.796875 1.230469 -1.246094 C 0.941406 -1.691406 0.789062 -2.210938 0.78125 -2.800781 L 1.929688 -2.800781 C 1.945312 -2.21875 2.179688 -1.761719 2.625 -1.425781 C 3.074219 -1.09375 3.652344 -0.925781 4.363281 -0.925781 C 5.007812 -0.925781 5.519531 -1.050781 5.894531 -1.304688 C 6.273438 -1.554688 6.460938 -1.90625 6.460938 -2.359375 C 6.460938 -2.785156 6.28125 -3.125 5.914062 -3.382812 C 5.550781 -3.636719 4.957031 -3.859375 4.128906 -4.050781 C 3.007812 -4.320312 2.1875 -4.667969 1.667969 -5.085938 C 1.148438 -5.507812 0.886719 -6.070312 0.886719 -6.773438 C 0.886719 -7.546875 1.179688 -8.160156 1.765625 -8.613281 C 2.351562 -9.0625 3.144531 -9.289062 4.144531 -9.289062 C 5.167969 -9.289062 5.976562 -9.03125 6.574219 -8.519531 C 7.167969 -8.007812 7.46875 -7.308594 7.476562 -6.421875 L 6.34375 -6.421875 C 6.335938 -6.96875 6.132812 -7.402344 5.738281 -7.71875 C 5.34375 -8.035156 4.8125 -8.195312 4.144531 -8.195312 C 3.492188 -8.195312 2.980469 -8.066406 2.613281 -7.8125 C 2.242188 -7.554688 2.058594 -7.210938 2.058594 -6.773438 C 2.058594 -6.402344 2.230469 -6.085938 2.574219 -5.832031 C 2.917969 -5.574219 3.53125 -5.335938 4.417969 -5.121094 C 5.582031 -4.832031 6.410156 -4.476562 6.90625 -4.046875 C 7.398438 -3.617188 7.648438 -3.066406 7.648438 -2.398438 C 7.648438 -1.605469 7.351562 -0.980469 6.753906 -0.519531 C 6.160156 -0.0625 5.363281 0.167969 4.363281 0.167969 Z M 4.363281 0.167969 "/></g></g></g><g clip-path="url(#7ac65221a0)"><g clip-path="url(#f7d8d488f7)"><path fill="#44aa00" d="M 155.007812 24.539062 L 158.871094 24.539062 L 158.871094 28.328125 L 155.007812 28.328125 Z M 155.007812 24.539062 " fill-opacity="1" fill-rule="nonzero"/></g></g><g clip-path="url(#105ed8d047)"><path fill="#006838" d="M 195.8125 18.945312 C 196.351562 21.65625 195 24.453125 193.054688 26.40625 C 191.109375 28.363281 188.621094 29.65625 186.246094 31.050781 C 183.863281 32.445312 181.488281 34.035156 180 36.359375 C 178.699219 38.378906 178.167969 40.800781 177.894531 43.1875 C 177.554688 46.085938 177.601562 49.125 178.519531 51.851562 C 179.1875 50.207031 180.058594 48.632812 181.046875 47.164062 C 182.992188 44.269531 185.390625 41.714844 187.773438 39.175781 C 190.5625 36.210938 193.34375 33.246094 196.128906 30.28125 C 193.246094 35.703125 188.777344 40.074219 185 44.914062 C 181.222656 49.753906 178 55.535156 178.355469 61.675781 C 178.636719 58.53125 181.175781 56.039062 183.933594 54.519531 C 186.691406 53.003906 189.777344 52.15625 192.492188 50.570312 C 197.628906 47.570312 201.085938 41.847656 201.351562 35.890625 C 201.625 29.863281 198.882812 24.128906 195.8125 18.945312 Z M 195.8125 18.945312 " fill-opacity="1" fill-rule="nonzero"/></g><g clip-path="url(#8252030d73)"><g clip-path="url(#990f72e7b5)"><path fill="url(#af39a9592c)" d="M 176.390625 21.546875 L 176.390625 53.921875 L 158.160156 53.921875 L 158.160156 21.546875 Z M 176.390625 21.546875 " fill-rule="nonzero"/></g></g><g fill="#8cc342" fill-opacity="1"><g transform="translate(172.063015, 106.447047)"><g><path d="M 3.054688 -42.027344 L 12.632812 -42.027344 L 12.632812 0 L 3.054688 0 Z M 3.054688 -42.027344 "/></g></g></g><g fill="#08643f" fill-opacity="1"><g transform="translate(188.607762, 105.531573)"><g><path d="M 3.054688 -42.027344 L 15.230469 -42.027344 C 21.074219 -42.027344 26.066406 -40.03125 30.207031 -36.042969 C 34.351562 -32.050781 36.421875 -27.050781 36.421875 -21.039062 C 36.421875 -14.992188 34.359375 -9.976562 30.234375 -5.984375 C 26.109375 -1.996094 21.105469 0 15.230469 0 L 3.054688 0 Z M 12.632812 -8.558594 L 14.109375 -8.558594 C 17.609375 -8.558594 20.46875 -9.738281 22.695312 -12.097656 C 24.917969 -14.457031 26.046875 -17.421875 26.082031 -20.988281 C 26.082031 -24.554688 24.96875 -27.527344 22.746094 -29.902344 C 20.519531 -32.28125 17.644531 -33.46875 14.109375 -33.46875 L 12.632812 -33.46875 Z M 12.632812 -8.558594 "/></g></g></g><g fill="#08643f" fill-opacity="1"><g transform="translate(221.868891, 105.531573)"><g><path d="M 12.632812 -16.863281 L 12.632812 0 L 3.054688 0 L 3.054688 -42.027344 L 12.632812 -42.027344 L 12.632812 -25.265625 L 26.183594 -25.265625 L 26.183594 -42.027344 L 35.761719 -42.027344 L 35.761719 0 L 26.183594 0 L 26.183594 -16.863281 Z M 12.632812 -16.863281 "/></g></g></g><g fill="#08643f" fill-opacity="1"><g transform="translate(256.35251, 105.531573)"><g><path d="M 24.402344 -42.027344 L 41.363281 0 L 31.074219 0 L 27.96875 -8.40625 L 11.972656 -8.40625 L 8.863281 0 L -1.425781 0 L 15.539062 -42.027344 Z M 24.707031 -16.8125 L 20.019531 -29.035156 L 19.917969 -29.035156 L 15.230469 -16.8125 Z M 24.707031 -16.8125 "/></g></g></g><g fill="#08643f" fill-opacity="1"><g transform="translate(291.956741, 105.531573)"><g><path d="M 3.054688 -42.027344 L 18.085938 -42.027344 C 22.125 -42.027344 25.417969 -40.949219 27.96875 -38.792969 C 30.515625 -36.636719 31.789062 -33.554688 31.789062 -29.546875 C 31.789062 -26.457031 31.015625 -23.867188 29.46875 -21.777344 C 27.925781 -19.6875 25.828125 -18.21875 23.179688 -17.371094 L 37.644531 0 L 25.472656 0 L 12.632812 -16.605469 L 12.632812 0 L 3.054688 0 Z M 12.632812 -23.382812 L 13.753906 -23.382812 C 14.636719 -23.382812 15.382812 -23.398438 15.996094 -23.433594 C 16.605469 -23.46875 17.304688 -23.585938 18.085938 -23.789062 C 18.867188 -23.992188 19.492188 -24.28125 19.96875 -24.65625 C 20.445312 -25.03125 20.851562 -25.574219 21.191406 -26.285156 C 21.53125 -27 21.699219 -27.863281 21.699219 -28.882812 C 21.699219 -29.902344 21.53125 -30.769531 21.191406 -31.480469 C 20.851562 -32.195312 20.445312 -32.738281 19.96875 -33.113281 C 19.492188 -33.484375 18.867188 -33.773438 18.085938 -33.976562 C 17.304688 -34.183594 16.605469 -34.300781 15.996094 -34.335938 C 15.382812 -34.367188 14.636719 -34.386719 13.753906 -34.386719 L 12.632812 -34.386719 Z M 12.632812 -23.382812 "/></g></g></g><g fill="#08643f" fill-opacity="1"><g transform="translate(324.097258, 105.531573)"><g><path d="M 37.796875 0 L 35.8125 -24.910156 L 35.558594 -24.910156 L 26.949219 -0.253906 L 21.242188 -0.253906 L 12.632812 -24.910156 L 12.378906 -24.910156 L 10.390625 0 L 0.816406 0 L 4.585938 -42.027344 L 14.773438 -42.027344 L 24.09375 -17.777344 L 33.417969 -42.027344 L 43.605469 -42.027344 L 47.375 0 Z M 37.796875 0 "/></g></g></g></svg>