<svg xmlns="http://www.w3.org/2000/svg" xmlns:xlink="http://www.w3.org/1999/xlink" width="500" zoomAndPan="magnify" viewBox="0 0 375 157.92" height="200" preserveAspectRatio="xMidYMid meet" version="1.0"><defs><clipPath id="c96275a5c6"><path d="M 201.730469 98.371094 L 203.390625 98.371094 L 203.390625 99.800781 L 201.730469 99.800781 Z M 201.730469 98.371094 " clip-rule="nonzero"/></clipPath><clipPath id="66c6a8505f"><path d="M 203.382812 98.882812 C 202.65625 100.0625 201.960938 99.851562 201.789062 99.609375 C 201.652344 99.367188 201.789062 98.640625 201.996094 98.464844 C 202.238281 98.257812 203.175781 98.535156 203.175781 98.535156 " clip-rule="nonzero"/></clipPath><clipPath id="0ab087a761"><path d="M 182 27.4375 L 234 27.4375 L 234 119.640625 L 182 119.640625 Z M 182 27.4375 " clip-rule="nonzero"/></clipPath><clipPath id="ac7031944b"><path d="M 140.476562 33 L 180 33 L 180 103 L 140.476562 103 Z M 140.476562 33 " clip-rule="nonzero"/></clipPath><clipPath id="664616e4e1"><path d="M 149.980469 33.046875 C 149.101562 37.480469 151.308594 42.054688 154.484375 45.246094 C 157.664062 48.4375 161.726562 50.5625 165.609375 52.84375 C 169.492188 55.125 173.363281 57.71875 175.808594 61.515625 C 177.933594 64.820312 178.792969 68.773438 179.242188 72.683594 C 179.78125 77.410156 179.710938 82.386719 178.207031 86.847656 C 177.117188 84.164062 175.699219 81.585938 174.078125 79.1875 C 170.902344 74.460938 166.992188 70.28125 163.101562 66.132812 C 158.550781 61.289062 154.007812 56.441406 149.457031 51.59375 C 154.164062 60.460938 161.460938 67.597656 167.632812 75.515625 C 173.804688 83.425781 179.058594 92.875 178.484375 102.910156 C 178.023438 97.777344 173.878906 93.703125 169.382812 91.21875 C 164.886719 88.734375 159.839844 87.355469 155.402344 84.761719 C 147.015625 79.832031 141.375 70.484375 140.933594 60.746094 C 140.496094 50.894531 144.972656 41.53125 149.980469 33.046875 Z M 149.980469 33.046875 " clip-rule="nonzero"/></clipPath><linearGradient x1="-1204.20996" gradientTransform="matrix(-0.0915572, 0, 0, 0.0919825, 49.973157, 27.437625)" y1="60.99999" x2="-1204.20996" gradientUnits="userSpaceOnUse" y2="820.500012" id="5eb7dc0528"><stop stop-opacity="1" stop-color="rgb(53.503418%, 74.87793%, 25.770569%)" offset="0"/><stop stop-opacity="1" stop-color="rgb(53.413391%, 74.772644%, 25.761414%)" offset="0.125"/><stop stop-opacity="1" stop-color="rgb(53.234863%, 74.565125%, 25.744629%)" offset="0.25"/><stop stop-opacity="1" stop-color="rgb(53.05481%, 74.356079%, 25.727844%)" offset="0.375"/><stop stop-opacity="1" stop-color="rgb(52.876282%, 74.147034%, 25.71106%)" offset="0.5"/><stop stop-opacity="1" stop-color="rgb(52.696228%, 73.939514%, 25.694275%)" offset="0.625"/><stop stop-opacity="1" stop-color="rgb(52.5177%, 73.730469%, 25.67749%)" offset="0.75"/><stop stop-opacity="1" stop-color="rgb(52.337646%, 73.522949%, 25.660706%)" offset="0.875"/><stop stop-opacity="1" stop-color="rgb(52.157593%, 73.313904%, 25.645447%)" offset="1"/></linearGradient></defs><g clip-path="url(#c96275a5c6)"><g clip-path="url(#66c6a8505f)"><path fill="#ffffff" d="M 200.402344 97.078125 L 204.804688 97.078125 L 204.804688 101.378906 L 200.402344 101.378906 Z M 200.402344 97.078125 " fill-opacity="1" fill-rule="nonzero"/></g></g><g clip-path="url(#0ab087a761)"><path fill="#006838" d="M 221.632812 27.4375 C 222.796875 33.289062 219.882812 39.320312 215.691406 43.535156 C 211.5 47.757812 206.132812 50.554688 201.015625 53.5625 C 195.886719 56.570312 190.769531 60 187.554688 65.011719 C 184.753906 69.371094 183.609375 74.597656 183.023438 79.75 C 182.292969 86.003906 182.390625 92.5625 184.371094 98.449219 C 185.808594 94.898438 187.683594 91.503906 189.816406 88.328125 C 194.011719 82.085938 199.175781 76.574219 204.3125 71.09375 C 210.316406 64.691406 216.3125 58.296875 222.320312 51.894531 C 216.101562 63.597656 206.472656 73.035156 198.332031 83.472656 C 190.191406 93.921875 183.253906 106.394531 184.011719 119.640625 C 184.617188 112.863281 190.09375 107.480469 196.035156 104.207031 C 201.976562 100.933594 208.632812 99.101562 214.484375 95.679688 C 225.550781 89.203125 232.996094 76.859375 233.574219 64 C 234.160156 50.996094 228.253906 38.621094 221.632812 27.4375 Z M 221.632812 27.4375 " fill-opacity="1" fill-rule="nonzero"/></g><g clip-path="url(#ac7031944b)"><g clip-path="url(#664616e4e1)"><path fill="url(#5eb7dc0528)" d="M 179.78125 33.046875 L 179.78125 102.910156 L 140.496094 102.910156 L 140.496094 33.046875 Z M 179.78125 33.046875 " fill-rule="nonzero"/></g></g></svg>